<svg width="36" height="36" viewBox="0 0 36 36" fill="none" xmlns="http://www.w3.org/2000/svg">
<path d="M36 24.1875C36 27.6047 34.1027 30.375 30.375 30.375H5.625C1.89731 30.375 0 27.6047 0 24.1875V11.8125C0 8.39531 1.89731 5.625 5.625 5.625H30.375C34.1027 5.625 36 8.39531 36 11.8125V24.1875Z" fill="#009B3A"/>
<path d="M32.1413 18.4444L18.0844 28.3219L4.02698 18.4444L18.0844 8.56689L32.1413 18.4444Z" fill="#FEDF01"/>
<path fill-rule="evenodd" clip-rule="evenodd" d="M23.6306 20.1646C22.9905 22.3397 20.9874 23.9957 18.7194 24.2207C15.6892 24.5239 13.0382 22.5979 12.3935 19.6206C12.2028 18.7457 12.2271 17.8375 12.4644 16.9741C12.5527 16.8784 12.6748 16.8554 12.7963 16.8385C13.6826 16.7154 14.5785 16.6765 15.4721 16.7221C16.4255 16.7761 17.3711 16.9082 18.2902 17.1681C19.2335 17.4353 20.147 17.7841 21.0093 18.2476C21.6583 18.5923 22.2781 18.9893 22.8628 19.4344C23.0608 19.588 23.2627 19.7387 23.4528 19.9024C23.5378 19.9756 23.6047 20.0543 23.6306 20.1646Z" fill="#002776"/>
<path fill-rule="evenodd" clip-rule="evenodd" d="M12.7822 16.0937C13.5084 14.4709 14.733 13.3904 16.4255 12.883C19.8343 11.8609 23.3314 14.1137 23.8382 17.6271C23.9169 18.1699 23.9203 18.7144 23.837 19.2584C23.751 19.2904 23.6869 19.2449 23.6278 19.1959C23.01 18.6911 22.3509 18.2391 21.6574 17.8448C21.1233 17.5417 20.5684 17.2771 19.9969 17.0528C19.8956 17.0129 19.7685 16.9921 19.7336 16.8565C19.7702 16.7912 19.8163 16.7344 19.8714 16.6816C19.8911 16.6613 19.9198 16.6416 19.8934 16.6079C19.8844 16.5972 19.8658 16.5972 19.85 16.5989C19.8079 16.6034 19.8135 16.6326 19.8152 16.6636C19.8185 16.7642 19.76 16.8289 19.683 16.8807C19.5463 16.9116 19.4152 16.8706 19.3044 16.8115C18.9872 16.645 18.6362 16.5882 18.3004 16.4954C17.7767 16.3531 17.2389 16.2726 16.7023 16.1888C16.274 16.1204 15.8429 16.0712 15.4102 16.0414C15.0165 16.0139 14.6154 16.0178 14.2189 16.0448C13.7863 16.0752 13.3526 16.1056 12.9223 16.1573C12.8953 16.1612 12.8678 16.1573 12.8429 16.1461C12.8181 16.1348 12.797 16.1166 12.7822 16.0937Z" fill="#002776"/>
<path fill-rule="evenodd" clip-rule="evenodd" d="M19.7381 16.8217C19.7359 16.8903 19.7972 16.8813 19.8343 16.8959C21.2869 17.461 22.6377 18.259 23.8337 19.2584C23.7992 19.567 23.7309 19.8709 23.6301 20.1646C22.9264 19.5807 22.2058 19.0244 21.4087 18.5699C18.8893 17.135 16.1916 16.5663 13.3076 16.8712C13.0264 16.8999 12.7451 16.9381 12.4639 16.9724C12.5364 16.6681 12.6287 16.3694 12.78 16.0927C14.8854 15.8086 16.9543 15.9701 18.9844 16.5984C19.2364 16.6766 19.4766 16.8026 19.7454 16.8262L19.7381 16.82" fill="#FEFEFE"/>
<path fill-rule="evenodd" clip-rule="evenodd" d="M22.3593 20.447C22.19 20.429 22.374 20.6365 22.203 20.632C22.0539 20.6298 22.046 20.5105 21.9729 20.4442C22.0292 20.3857 22.1287 20.3738 22.1602 20.2827C22.1816 20.3789 22.2722 20.3992 22.3593 20.447Z" fill="#D9DFEA"/>
<path fill-rule="evenodd" clip-rule="evenodd" d="M15.9716 21.4875C15.8124 21.5061 15.9457 21.6794 15.8124 21.6822C15.678 21.685 15.6088 21.5854 15.5818 21.4825C15.5722 21.4532 15.7016 21.388 15.7652 21.3396C15.7731 21.4414 15.8788 21.4369 15.9716 21.4875Z" fill="#E9ECF3"/>
<path fill-rule="evenodd" clip-rule="evenodd" d="M18.0787 21.1744C17.8576 21.3172 18.0359 20.9944 17.906 21.0259C17.9482 20.9584 18.0674 20.9741 18.0753 20.8706C18.1316 20.9291 18.1794 20.9966 18.2688 21.009C18.1411 20.9915 18.2801 21.275 18.0787 21.1744Z" fill="#EDEFF5"/>
<path fill-rule="evenodd" clip-rule="evenodd" d="M13.5112 17.384C13.4583 17.4847 13.4184 17.5972 13.2581 17.5297C13.176 17.4954 13.2637 17.3829 13.1653 17.3722L13.3475 17.2119C13.3599 17.2384 13.3745 17.2637 13.3869 17.2901C13.4015 17.357 13.5348 17.2682 13.5112 17.384Z" fill="#F0F2F6"/>
<path fill-rule="evenodd" clip-rule="evenodd" d="M14.0214 19.8281C13.9376 19.8545 13.9978 20.075 13.8178 19.9788C13.7998 19.9698 13.7211 20.0131 13.7357 19.9878C13.7829 19.8956 13.6772 19.8506 13.6935 19.7769C13.7919 19.8196 13.7863 19.6396 13.887 19.688C13.8943 19.6936 13.8943 19.7161 13.8994 19.7308C13.9101 19.8005 14.0462 19.7133 14.0214 19.8281Z" fill="#ECEFF4"/>
<path fill-rule="evenodd" clip-rule="evenodd" d="M13.1366 20.4796C12.964 20.5398 13.0928 20.3311 12.9938 20.3328C13.0399 20.294 13.0916 20.2214 13.1378 20.2242C13.1929 20.227 13.2435 20.2951 13.2941 20.3339C13.2188 20.3592 13.2981 20.5634 13.1366 20.4796Z" fill="#D9DFEA"/>
<path fill-rule="evenodd" clip-rule="evenodd" d="M19.8112 22.4702C19.6284 22.5535 19.8061 22.3077 19.6841 22.3397C19.6717 22.2458 19.8241 22.3026 19.805 22.2036L19.9698 22.3358C19.9029 22.3662 19.9698 22.5574 19.8112 22.4702Z" fill="#D8DEEA"/>
<path fill-rule="evenodd" clip-rule="evenodd" d="M20.9812 22.3347C20.8299 22.3977 20.9227 22.1941 20.8412 22.1738C20.8963 22.1384 20.9542 22.1007 21.0082 22.0641C21.0127 22.1474 21.1269 22.117 21.1393 22.1907C21.0544 22.1957 21.1427 22.3791 20.9812 22.3347ZM22.0331 21.5776C21.861 21.6647 21.9881 21.4358 21.8897 21.4454C21.9094 21.3722 22.0224 21.3998 22.0292 21.3154L22.1906 21.4364C22.0922 21.4336 22.2131 21.6749 22.0331 21.5776Z" fill="#DCE1EC"/>
<path fill-rule="evenodd" clip-rule="evenodd" d="M15.0654 20.5274C14.8854 20.6293 15.0029 20.4014 14.9197 20.3969C14.9281 20.3131 15.0552 20.3491 15.0609 20.2603C15.0777 20.3424 15.1869 20.3188 15.2105 20.3924C15.1031 20.3767 15.2561 20.6349 15.0654 20.5274Z" fill="#D4DAE7"/>
<path fill-rule="evenodd" clip-rule="evenodd" d="M15.7949 18.8185C15.6931 18.8118 15.8236 18.6515 15.6987 18.6616C15.7201 18.5716 15.8163 18.5901 15.8692 18.5435C15.8962 18.6003 15.9727 18.6132 15.9766 18.6948C15.9856 18.8438 15.8534 18.7668 15.7949 18.8185Z" fill="#F2F4F7"/>
<path fill-rule="evenodd" clip-rule="evenodd" d="M18.7593 20.0066C18.6035 20.096 18.6856 19.8963 18.6136 19.8744C18.6626 19.8339 18.7098 19.7928 18.7593 19.7512C18.7627 19.8345 18.9219 19.8159 18.8769 19.88C18.8499 19.9183 18.9371 20.0932 18.7593 20.0066Z" fill="#E6E9F1"/>
<path fill-rule="evenodd" clip-rule="evenodd" d="M18.0618 19.5052C17.8841 19.5232 18.0675 19.3618 17.9521 19.3657C17.9971 19.3235 18.0405 19.2515 18.0911 19.247C18.135 19.2425 18.1856 19.314 18.2334 19.3533C18.171 19.4135 18.1805 19.5688 18.0618 19.5052Z" fill="#EAEDF3"/>
<path fill-rule="evenodd" clip-rule="evenodd" d="M22.3774 20.8181C22.4139 20.9149 22.4859 20.9278 22.5422 20.9621C22.4848 21.0268 22.4623 21.1258 22.343 21.1258C22.221 21.1269 22.3037 21.0341 22.2761 20.9908C22.2081 20.8828 22.4595 20.9739 22.3774 20.8181Z" fill="#E4E8F0"/>
<path fill-rule="evenodd" clip-rule="evenodd" d="M21.1039 22.778C21.0611 22.8416 21.0904 22.9023 20.9768 22.9046C20.8468 22.9068 20.8884 22.8117 20.8828 22.7825C20.8721 22.7341 20.9464 22.688 20.9891 22.6976C21.0263 22.7043 21.0983 22.7251 21.1039 22.778Z" fill="#CED5E4"/>
<path fill-rule="evenodd" clip-rule="evenodd" d="M15.0265 20.9757C14.9337 20.9864 15.0108 21.1079 14.8932 21.104C14.7858 21.1006 14.8015 21.028 14.7897 20.9842C14.7712 20.9229 14.8617 20.9245 14.882 20.8784C14.9247 20.9082 14.968 20.938 15.0265 20.9757Z" fill="#DAE0EB"/>
<path fill-rule="evenodd" clip-rule="evenodd" d="M20.8518 21.618C20.8917 21.5882 20.9317 21.5606 20.9739 21.5325C20.9772 21.5949 21.1117 21.5589 21.0667 21.6388C21.0481 21.6708 21.0937 21.7586 20.9772 21.7507C20.8726 21.7434 20.8974 21.6703 20.8518 21.618Z" fill="#D8DEE9"/>
<path fill-rule="evenodd" clip-rule="evenodd" d="M20.4243 21.8111C20.4041 21.9219 20.3411 21.9399 20.2719 21.9529C20.1543 21.9725 20.2426 21.8842 20.2235 21.8505C20.174 21.7661 20.2989 21.7824 20.3135 21.7273C20.3461 21.77 20.4209 21.7689 20.4243 21.8111Z" fill="#CBD2E3"/>
<path fill-rule="evenodd" clip-rule="evenodd" d="M19.7662 18.1631C19.7268 18.1817 19.7792 18.2756 19.6948 18.2486C19.6307 18.2267 19.5519 18.1963 19.5575 18.1175C19.5598 18.0872 19.6363 18.0618 19.679 18.0354C19.6863 18.0922 19.8078 18.0737 19.7662 18.1631Z" fill="#D1D8E6"/>
<path fill-rule="evenodd" clip-rule="evenodd" d="M22.9494 20.6303C22.8436 20.6719 22.8914 20.5847 22.8729 20.5594C22.802 20.4632 22.9421 20.4773 22.9494 20.4199C22.9927 20.4486 23.0771 20.4812 23.0737 20.506C23.0712 20.5381 23.0573 20.5683 23.0345 20.5911C23.0117 20.614 22.9815 20.6278 22.9494 20.6303Z" fill="#DADFEA"/>
<path fill-rule="evenodd" clip-rule="evenodd" d="M17.5106 19.772C17.5106 19.8372 17.6422 19.8113 17.5978 19.8929C17.5798 19.9261 17.6181 20.015 17.5269 19.9964C17.4577 19.9823 17.388 19.9418 17.3857 19.8732C17.3857 19.8412 17.4656 19.8068 17.5106 19.772Z" fill="#CAD2E2"/>
<path fill-rule="evenodd" clip-rule="evenodd" d="M19.3106 21.8071C19.2588 21.7829 19.2566 21.7149 19.2599 21.6823C19.2656 21.6389 19.3235 21.5804 19.373 21.6041C19.4034 21.6187 19.4894 21.6103 19.4686 21.689C19.4495 21.7644 19.3741 21.7751 19.3106 21.8071Z" fill="#D0D7E5"/>
<path fill-rule="evenodd" clip-rule="evenodd" d="M21.4874 21.7081C21.4897 21.7076 21.5291 21.653 21.5735 21.6519C21.6056 21.6507 21.6382 21.7171 21.6725 21.7542C21.6264 21.7672 21.6657 21.8521 21.5746 21.851C21.4925 21.8493 21.4925 21.8122 21.4874 21.7081Z" fill="#EFF2F6"/>
<path fill-rule="evenodd" clip-rule="evenodd" d="M17.8684 20.2838C17.8532 20.3445 17.8532 20.3822 17.7992 20.3811C17.744 20.38 17.717 20.3597 17.7182 20.3035C17.7182 20.259 17.7474 20.2281 17.7806 20.2309C17.8189 20.2337 17.8734 20.2444 17.8684 20.2838Z" fill="#CCD4E3"/>
<path fill-rule="evenodd" clip-rule="evenodd" d="M14.4191 19.4084C14.4461 19.4377 14.477 19.4608 14.4888 19.4906C14.499 19.5153 14.4832 19.553 14.4483 19.5569C14.4095 19.5603 14.3679 19.5592 14.3555 19.5108C14.3443 19.4636 14.3853 19.4467 14.4191 19.4084Z" fill="#E0E5EE"/>
<path fill-rule="evenodd" clip-rule="evenodd" d="M14.0214 19.8281C14.0062 19.7634 13.906 19.8045 13.8993 19.7302C13.9207 19.7865 14.0877 19.661 14.0214 19.8281Z" fill="#7085B1"/>
<path fill-rule="evenodd" clip-rule="evenodd" d="M13.5113 17.3842C13.4989 17.315 13.3926 17.3696 13.387 17.2903C13.4168 17.3375 13.5675 17.2256 13.5113 17.3842Z" fill="#5C75A7"/>
<path fill-rule="evenodd" clip-rule="evenodd" d="M19.7493 16.8277C19.76 16.785 19.7943 16.7152 19.7808 16.7023C19.5974 16.5391 19.8421 16.5116 19.8787 16.4784C19.9456 16.4137 19.9349 16.6865 20.1116 16.5138C20.0165 16.7248 19.8894 16.7855 19.7431 16.8215L19.7493 16.8277Z" fill="#E7EAF2"/>
<path fill-rule="evenodd" clip-rule="evenodd" d="M14.3274 16.653C14.1485 16.6355 14.3077 16.4027 14.2689 16.2677C14.2205 16.0933 14.3476 16.0955 14.4714 16.095C14.6632 16.0939 14.7717 16.1749 14.7717 16.3774C14.7712 16.5765 14.6789 16.6552 14.3274 16.653Z" fill="#15A24A"/>
<path fill-rule="evenodd" clip-rule="evenodd" d="M21.1618 17.7767C21.1225 17.897 20.9768 17.9724 20.952 18.1209C20.9498 18.1406 20.8935 18.1367 20.8828 18.0793C20.8378 17.8104 20.8356 17.811 20.637 17.955C20.6213 17.9668 20.5937 17.9775 20.5785 17.9724C20.5493 17.9595 20.5375 17.9302 20.5549 17.897C20.6207 17.7688 20.6826 17.6372 20.7563 17.5129C20.8058 17.4307 20.866 17.4994 20.9143 17.523C21.0206 17.5753 21.1517 17.6051 21.1618 17.7767Z" fill="#13A248"/>
<path fill-rule="evenodd" clip-rule="evenodd" d="M21.6652 18.2144C21.5617 18.256 21.5117 18.1778 21.4453 18.1497C21.4003 18.1306 21.3581 18.1126 21.3277 18.1627C21.2945 18.2155 21.3277 18.2459 21.3733 18.2695C21.4082 18.287 21.4453 18.3005 21.4712 18.328C21.5167 18.3758 21.6596 18.3629 21.6017 18.4647C21.5561 18.5457 21.4796 18.4512 21.429 18.4214C21.3418 18.368 21.1691 18.3387 21.1877 18.2459C21.2164 18.0968 21.3013 17.9348 21.4144 17.8325C21.5049 17.7503 21.605 17.9056 21.7069 17.9444C21.7507 17.9607 21.8255 17.9753 21.8126 18.0445C21.8002 18.116 21.7474 18.0743 21.7069 18.0648C21.6118 18.0428 21.5195 17.882 21.4447 17.9933C21.3997 18.0597 21.5848 18.0873 21.6433 18.1604C21.6523 18.1711 21.6545 18.1857 21.6652 18.2144ZM22.8774 19.0098C22.8943 19.1414 22.8409 19.2308 22.703 19.2083C22.5602 19.1847 22.4516 19.0975 22.4269 18.9412C22.4246 18.9254 22.4437 18.8933 22.4595 18.8888C22.4685 18.8859 22.4781 18.8849 22.4876 18.8861C22.4971 18.8872 22.5062 18.8904 22.5143 18.8954C22.5224 18.9005 22.5293 18.9072 22.5345 18.9152C22.5397 18.9232 22.5431 18.9323 22.5444 18.9417C22.5624 19.0492 22.6187 19.097 22.7317 19.0992C22.7537 18.9232 22.4359 18.8427 22.6187 18.6599C22.7104 18.5682 22.8223 18.6442 22.9022 18.7178C22.9759 18.7848 23.0659 18.8585 22.9314 18.9541C22.9123 18.944 22.8864 18.9277 22.8724 18.9389C22.8437 18.958 22.8718 18.9856 22.8774 19.0098Z" fill="#11A147"/>
<path fill-rule="evenodd" clip-rule="evenodd" d="M18.9923 17.3346C18.9253 17.2969 18.9287 17.2609 18.9394 17.2215C18.9608 17.1377 18.9174 17.0938 18.8409 17.0702C18.7644 17.0454 18.7054 17.0488 18.6846 17.1444C18.6773 17.1872 18.6548 17.217 18.6081 17.2012C18.5541 17.1816 18.5811 17.1377 18.5912 17.1056C18.6126 17.0319 18.6317 16.9577 18.6654 16.8874C18.6958 16.8171 18.6744 16.6882 18.7853 16.6967C18.9028 16.7051 19.0299 16.7332 19.1194 16.8306C19.1593 16.8733 19.1756 16.947 19.143 16.9791C19.0479 17.0769 19.0558 17.2153 18.9923 17.3346Z" fill="#0FA046"/>
<path fill-rule="evenodd" clip-rule="evenodd" d="M15.5211 16.6186C15.3394 16.6872 15.1959 16.6473 15.0559 16.6501C14.9923 16.6518 14.9867 16.604 14.9867 16.5556C14.9912 16.5022 14.9912 16.4482 14.9912 16.3947C14.9979 16.0983 15.1031 16.0224 15.3945 16.105C15.4271 16.114 15.4581 16.1197 15.4603 16.1562C15.4603 16.2069 15.4238 16.2159 15.3788 16.2147C15.3726 16.2136 15.3653 16.2119 15.3574 16.213C15.2702 16.2344 15.1138 16.136 15.111 16.2665C15.1076 16.3666 15.2781 16.2957 15.3653 16.3295C15.3776 16.3345 15.3911 16.3458 15.4103 16.3599C15.3551 16.4594 15.2634 16.4037 15.1926 16.4155C15.1504 16.4223 15.0953 16.4037 15.0891 16.4724C15.0812 16.5534 15.1374 16.5494 15.1926 16.555C15.2865 16.5663 15.3883 16.5309 15.5211 16.6186Z" fill="#0B9F43"/>
<path fill-rule="evenodd" clip-rule="evenodd" d="M14.0276 16.6614C13.9298 16.64 13.9433 16.5838 13.9264 16.5444C13.8971 16.4718 13.8392 16.4718 13.7756 16.4769C13.7031 16.4836 13.6637 16.5118 13.6699 16.5922C13.6744 16.6316 13.6901 16.6951 13.617 16.6861C13.554 16.6783 13.572 16.617 13.5686 16.5753C13.563 16.5073 13.5563 16.4375 13.563 16.37C13.572 16.2946 13.5 16.1793 13.6086 16.1523C13.7205 16.1231 13.8499 16.1023 13.9663 16.158C14.0169 16.1821 14.0569 16.2412 14.0383 16.289C13.9956 16.4094 14.0293 16.5315 14.0276 16.6614Z" fill="#079D3F"/>
<path fill-rule="evenodd" clip-rule="evenodd" d="M12.8402 16.47C12.8582 16.3175 12.9251 16.1938 13.0922 16.1994C13.2525 16.2045 13.338 16.3158 13.338 16.4762C13.338 16.6353 13.2638 16.745 13.0945 16.7439C12.9223 16.7428 12.8638 16.6179 12.8402 16.47Z" fill="#15A24A"/>
<path fill-rule="evenodd" clip-rule="evenodd" d="M23.5484 19.3276C23.5327 19.4789 23.4579 19.5931 23.2852 19.6083C23.126 19.6212 23.0416 19.5301 23.0292 19.3804C23.0152 19.2291 23.1637 19.0846 23.315 19.0857C23.4477 19.0868 23.5451 19.183 23.5484 19.3276Z" fill="#11A147"/>
<path fill-rule="evenodd" clip-rule="evenodd" d="M20.3906 17.5669C20.5177 17.6692 20.3636 17.7367 20.358 17.8228C20.2522 17.7739 20.1201 17.7935 20.0346 17.7007C19.9434 17.6017 19.9603 17.4898 20.0199 17.3807C20.0857 17.2654 20.187 17.2159 20.3113 17.2597C20.4249 17.3002 20.5099 17.3767 20.4547 17.5207C20.3675 17.5365 20.2961 17.4217 20.1735 17.4988C20.255 17.5365 20.3529 17.4842 20.3906 17.5669Z" fill="#0C9F43"/>
<path fill-rule="evenodd" clip-rule="evenodd" d="M17.3306 16.4082C17.2564 16.4954 17.2018 16.4617 17.1506 16.4628C17.1011 16.4628 17.0482 16.4217 16.9869 16.4729C17.042 16.5629 17.1754 16.505 17.2271 16.5944C17.2198 16.6074 17.2164 16.6248 17.2069 16.6338C17.1326 16.6923 17.0139 16.5505 16.9678 16.6675C16.9256 16.7682 17.0364 16.7334 17.0842 16.7502C17.1382 16.7716 17.2052 16.7637 17.2704 16.8369C17.1191 16.9032 16.9385 16.8723 16.8761 16.7992C16.7777 16.6839 16.8469 16.4791 16.9217 16.3767C17.01 16.2558 17.1714 16.3739 17.3306 16.4082Z" fill="#19A44D"/>
<path fill-rule="evenodd" clip-rule="evenodd" d="M18.2897 16.8975C18.162 16.884 18.0169 16.794 17.9803 17.0043C17.9792 17.0111 17.9348 17.0206 17.9213 17.0116C17.9061 17.0032 17.8976 16.9717 17.9004 16.9537C17.9336 16.8204 17.9505 16.6775 18.0096 16.5577C18.0782 16.4227 18.1946 16.5369 18.2908 16.5498C18.4056 16.565 18.4691 16.6348 18.4568 16.7557C18.4455 16.8598 18.3668 16.8879 18.2897 16.8975Z" fill="#0D9F44"/>
<path fill-rule="evenodd" clip-rule="evenodd" d="M19.8113 17.22C19.7989 17.3893 19.7156 17.5063 19.5463 17.5113C19.395 17.517 19.3101 17.4107 19.3135 17.2599C19.318 17.0968 19.3973 16.9787 19.5733 16.9736C19.7348 16.968 19.7972 17.0765 19.8113 17.22Z" fill="#0FA046"/>
<path fill-rule="evenodd" clip-rule="evenodd" d="M16.0194 16.609C16.0009 16.649 15.9857 16.7058 15.9322 16.6929C15.8394 16.6709 15.881 16.5815 15.8585 16.523C15.7899 16.456 15.8079 16.5483 15.7865 16.5652C15.7787 16.6068 15.7978 16.6704 15.7415 16.6788C15.6724 16.6872 15.6887 16.6209 15.6904 16.5815C15.696 16.4994 15.6971 16.4133 15.7196 16.3345C15.7393 16.267 15.6679 16.1427 15.8023 16.1416C15.921 16.141 15.8951 16.262 15.9103 16.3345C15.926 16.4178 15.9345 16.4532 16.0025 16.3705C16.0729 16.352 16.0875 16.4032 16.1038 16.4527C16.1128 16.5247 16.0807 16.5747 16.0194 16.609Z" fill="#0EA044"/>
<path fill-rule="evenodd" clip-rule="evenodd" d="M22.0106 18.675C22.0523 18.675 22.0945 18.7301 22.135 18.6828C22.1659 18.6474 22.1383 18.6125 22.1108 18.5838C22.0905 18.5619 22.0691 18.5411 22.05 18.5175C21.9926 18.4483 21.9122 18.3819 21.9915 18.2818C22.0635 18.1901 22.1473 18.2126 22.2306 18.2705C22.2458 18.2998 22.2407 18.3279 22.225 18.3543C22.1636 18.4505 22.2778 18.509 22.2756 18.5912C22.293 18.6682 22.3043 18.7458 22.2193 18.7903C22.1136 18.8465 22.032 18.7948 21.9544 18.7273C21.946 18.6828 21.9623 18.6609 22.0106 18.675Z" fill="#10A146"/>
<path fill-rule="evenodd" clip-rule="evenodd" d="M20.3906 17.5669C20.3473 17.5973 20.2601 17.4988 20.2629 17.5731C20.2685 17.7047 20.2027 17.6929 20.1414 17.6541C20.0587 17.6029 20.0542 17.5152 20.1065 17.4342C20.1572 17.3548 20.2286 17.3087 20.3152 17.3734C20.3681 17.4122 20.408 17.4707 20.4536 17.5208L20.3906 17.5669Z" fill="#ECF7F0"/>
<path fill-rule="evenodd" clip-rule="evenodd" d="M16.0566 16.4757C16.0401 16.4409 16.0221 16.4069 16.0026 16.3738C16.0223 16.3238 16.0403 16.2732 16.0639 16.2248C16.0853 16.1792 16.1224 16.1539 16.1747 16.1708C16.2332 16.1905 16.2287 16.2355 16.2253 16.2827C16.2129 16.4205 16.2017 16.5578 16.191 16.6956C16.1089 16.7479 16.0881 16.7001 16.0746 16.6292C16.0644 16.578 16.0909 16.5229 16.0566 16.4757Z" fill="#17A34C"/>
<path fill-rule="evenodd" clip-rule="evenodd" d="M22.2772 18.5908C22.2265 18.539 22.1725 18.4901 22.1253 18.435C22.0702 18.3697 22.0915 18.3298 22.1737 18.3191C22.2924 18.3455 22.3649 18.4029 22.3301 18.539C22.3137 18.5559 22.2957 18.5739 22.2772 18.5908Z" fill="#D7EFE0"/>
<path fill-rule="evenodd" clip-rule="evenodd" d="M22.3301 18.5389C22.2755 18.468 22.2609 18.3668 22.1737 18.319L22.2322 18.27C22.3267 18.337 22.4994 18.3752 22.3301 18.5389Z" fill="#2BAB5B"/>
<path fill-rule="evenodd" clip-rule="evenodd" d="M22.8774 19.0098C22.8701 19.0053 22.8605 19.0031 22.8572 18.9969C22.8122 18.9136 22.6631 18.8388 22.7137 18.7651C22.7773 18.6763 22.8437 18.7815 22.8785 18.8574C22.8943 18.8895 22.9134 18.921 22.9314 18.9541C22.9128 18.9727 22.8943 18.9913 22.8774 19.0098Z" fill="#E6F5EC"/>
<path fill-rule="evenodd" clip-rule="evenodd" d="M22.0105 18.6751C21.9925 18.6925 21.9751 18.7105 21.9543 18.728C21.9307 18.7111 21.898 18.6993 21.8829 18.6751C21.8542 18.6205 21.772 18.548 21.8671 18.5052C21.947 18.467 21.947 18.5688 21.9729 18.6183C21.9835 18.6391 21.997 18.6565 22.0105 18.6751Z" fill="#29AA59"/>
<path fill-rule="evenodd" clip-rule="evenodd" d="M16.0565 16.4756C16.1386 16.5076 16.0953 16.5763 16.0964 16.6275C16.1009 16.6978 16.1257 16.7214 16.1915 16.6966C16.0542 16.8294 16.0717 16.6522 16.0188 16.6128C16.0329 16.5661 16.0435 16.5206 16.0565 16.4756Z" fill="#DDF1E4"/>
<path fill-rule="evenodd" clip-rule="evenodd" d="M15.7837 16.5656V16.3845C15.8613 16.4093 15.8636 16.4638 15.8557 16.5235C15.8321 16.5375 15.8073 16.551 15.7837 16.5656Z" fill="#6FC690"/>
<path fill-rule="evenodd" clip-rule="evenodd" d="M14.382 16.38C14.3898 16.2979 14.3505 16.191 14.4905 16.2C14.5929 16.2062 14.6671 16.2472 14.6728 16.3642C14.6784 16.4902 14.6047 16.5414 14.4883 16.5499C14.3403 16.5617 14.4005 16.4452 14.382 16.38Z" fill="#F5FBF7"/>
<path fill-rule="evenodd" clip-rule="evenodd" d="M20.8687 17.6176C20.9272 17.6497 21.0166 17.6559 21.0357 17.7425C21.0453 17.7875 21.0065 17.8173 20.9665 17.8044C20.8923 17.7819 20.7939 17.7808 20.7837 17.6761C20.7809 17.6458 20.8135 17.6075 20.8687 17.6176Z" fill="#EFF8F3"/>
<path fill-rule="evenodd" clip-rule="evenodd" d="M19.0446 16.9257C19.0294 16.9842 18.9883 17.0044 18.9411 16.987C18.8775 16.9639 18.7751 16.9892 18.774 16.8779C18.7718 16.8199 18.8111 16.8025 18.864 16.8199C18.9338 16.8424 19.0181 16.8396 19.0446 16.9257Z" fill="#DEF2E5"/>
<path fill-rule="evenodd" clip-rule="evenodd" d="M13.7897 16.2332C13.8448 16.2399 13.932 16.2107 13.9264 16.3046C13.9208 16.3867 13.8375 16.3738 13.7779 16.3749C13.7301 16.3766 13.6615 16.4013 13.657 16.3153C13.6536 16.2129 13.7335 16.245 13.7897 16.2332Z" fill="#F3FAF5"/>
<path fill-rule="evenodd" clip-rule="evenodd" d="M13.0781 16.3115C13.1799 16.3183 13.2306 16.379 13.2345 16.4746C13.2401 16.5601 13.1979 16.6333 13.1102 16.6411C13.0089 16.6507 12.9634 16.5736 12.9577 16.4797C12.9521 16.3931 12.9859 16.3301 13.0781 16.3115Z" fill="#F3FAF6"/>
<path fill-rule="evenodd" clip-rule="evenodd" d="M23.4365 19.3474C23.4218 19.4407 23.3656 19.5066 23.257 19.5066C23.1698 19.5054 23.1372 19.4419 23.1462 19.3648C23.1547 19.2602 23.2171 19.1927 23.3234 19.1944C23.4072 19.1966 23.4398 19.2568 23.4365 19.3474Z" fill="#F9FCFA"/>
<path fill-rule="evenodd" clip-rule="evenodd" d="M18.1574 16.6207C18.2142 16.6556 18.3284 16.6196 18.3447 16.7321C18.3498 16.7748 18.3025 16.7968 18.2648 16.7883C18.1912 16.772 18.0882 16.7985 18.0792 16.6798C18.0775 16.6432 18.0938 16.6038 18.1574 16.6207Z" fill="#E7F5EC"/>
<path fill-rule="evenodd" clip-rule="evenodd" d="M19.6987 17.2335C19.688 17.3308 19.6402 17.3988 19.5417 17.3988C19.445 17.4 19.4107 17.3325 19.4152 17.2436C19.4231 17.1457 19.4787 17.0805 19.5738 17.0765C19.6683 17.0732 19.6987 17.1485 19.6987 17.2335Z" fill="#F5FBF7"/>
</svg>
